<svg id="visual" viewBox="0 0 900 360" width="900" height="360" xmlns="http://www.w3.org/2000/svg" xmlns:xlink="http://www.w3.org/1999/xlink" version="1.1"><rect width="900" height="360" fill="#2d0538"></rect><g><g transform="translate(142 227)"><path d="M0 -68.8L48.6 -48.6L68.8 0L48.6 48.6L0 68.8L-48.6 48.6L-68.8 0L-48.6 -48.6Z" fill="none" stroke="#af08c3" stroke-width="2"></path></g><g transform="translate(876 175)"><path d="M0 -50L35.4 -35.4L50 0L35.4 35.4L0 50L-35.4 35.4L-50 0L-35.4 -35.4Z" fill="none" stroke="#af08c3" stroke-width="2"></path></g><g transform="translate(457 46)"><path d="M0 -10L7.1 -7.1L10 0L7.1 7.1L0 10L-7.1 7.1L-10 0L-7.1 -7.1Z" stroke="#af08c3" fill="none" stroke-width="2"></path></g><g transform="translate(599 321)"><path d="M0 -61L43.1 -43.1L61 0L43.1 43.1L0 61L-43.1 43.1L-61 0L-43.1 -43.1Z" stroke="#af08c3" fill="none" stroke-width="2"></path></g><g transform="translate(302 325)"><path d="M0 -23L16.3 -16.3L23 0L16.3 16.3L0 23L-16.3 16.3L-23 0L-16.3 -16.3Z" stroke="#af08c3" fill="none" stroke-width="2"></path></g><g transform="translate(129 23)"><path d="M0 -53L37.5 -37.5L53 0L37.5 37.5L0 53L-37.5 37.5L-53 0L-37.5 -37.5Z" stroke="#af08c3" fill="none" stroke-width="2"></path></g><g transform="translate(801 18)"><path d="M0 -59L41.7 -41.7L59 0L41.7 41.7L0 59L-41.7 41.7L-59 0L-41.7 -41.7Z" stroke="#af08c3" fill="none" stroke-width="2"></path></g><g transform="translate(296 29)"><path d="M0 -63L44.5 -44.5L63 0L44.5 44.5L0 63L-44.5 44.5L-63 0L-44.5 -44.5Z" stroke="#af08c3" fill="none" stroke-width="2"></path></g><g transform="translate(880 330)"><path d="M0 -21L14.8 -14.8L21 0L14.8 14.8L0 21L-14.8 14.8L-21 0L-14.8 -14.8Z" stroke="#af08c3" fill="none" stroke-width="2"></path></g><g transform="translate(515 200)"><path d="M0 -27L19.1 -19.1L27 0L19.1 19.1L0 27L-19.1 19.1L-27 0L-19.1 -19.1Z" stroke="#af08c3" fill="none" stroke-width="2"></path></g><g transform="translate(653 104)"><path d="M0 -49L34.6 -34.6L49 0L34.6 34.6L0 49L-34.6 34.6L-49 0L-34.6 -34.6Z" stroke="#af08c3" fill="none" stroke-width="2"></path></g><g transform="translate(23 142)"><path d="M0 -57L40.3 -40.3L57 0L40.3 40.3L0 57L-40.3 40.3L-57 0L-40.3 -40.3Z" stroke="#af08c3" fill="none" stroke-width="2"></path></g><g transform="translate(713 236)"><path d="M0 -65L46 -46L65 0L46 46L0 65L-46 46L-65 0L-46 -46Z" stroke="#af08c3" fill="none" stroke-width="2"></path></g><g transform="translate(442 357)"><path d="M0 -44L31.1 -31.1L44 0L31.1 31.1L0 44L-31.1 31.1L-44 0L-31.1 -31.1Z" stroke="#af08c3" fill="none" stroke-width="2"></path></g><g transform="translate(17 357)"><path d="M0 -34L24 -24L34 0L24 24L0 34L-24 24L-34 0L-24 -24Z" stroke="#af08c3" fill="none" stroke-width="2"></path></g><g transform="translate(273 166)"><path d="M0 -66L46.7 -46.7L66 0L46.7 46.7L0 66L-46.7 46.7L-66 0L-46.7 -46.7Z" stroke="#af08c3" fill="none" stroke-width="2"></path></g></g></svg>